# xmcd
#
# Track frame offsets:
#	150
#	22181
#	42858
#	62473
#	81567
#	104051
#	129944
#	147451
#	163060
#	182790
#	205418
#	222419
#	247251
#	265330
#	287923
#	309513
#	325909
#
# Disc length: 4608 seconds
#
# Revision: 0
# Processed by: cddbd v1.4PL0 Copyright (c) Steve Scherf et al.
# Submitted via: EasyCDDAExtractor 4.6.9.1
#
DISCID=1411fe11
DTITLE=林憶蓮 - 憶蓮 還有...Greatest Hits (disk 1)
DYEAR=2002
DGENRE=pop
TTITLE0=一蓮串
TTITLE1=你令我性感
TTITLE2=滴汗
TTITLE3=瘋了
TTITLE4=依然
TTITLE5=只要我活過哭過
TTITLE6=薔薇之戀
TTITLE7=痴纏
TTITLE8=早晨
TTITLE9=沒有你還是愛你
TTITLE10=你是我的男人
TTITLE11=多謝
TTITLE12=此情只待成追憶
TTITLE13=破曉
TTITLE14=燒
TTITLE15=逃離鋼鐵森林
TTITLE16=傾斜
EXTD=
EXTT0=
EXTT1=
EXTT2=
EXTT3=
EXTT4=
EXTT5=
EXTT6=
EXTT7=
EXTT8=
EXTT9=
EXTT10=
EXTT11=
EXTT12=
EXTT13=
EXTT14=
EXTT15=
EXTT16=
PLAYORDER=
